<svg version="1.1" id="Layer_1" x="0px" y="0px" viewBox="0 0 212.1 44.9" style="enable-background:new 0 0 212.1 44.9;" xml:space="preserve" sodipodi:docname="Wuzzals_logo_blue_new.svg" inkscape:version="1.4 (e7c3feb1, 2024-10-09)" xmlns:inkscape="http://www.inkscape.org/namespaces/inkscape" xmlns:sodipodi="http://sodipodi.sourceforge.net/DTD/sodipodi-0.dtd" xmlns="http://www.w3.org/2000/svg" xmlns:svg="http://www.w3.org/2000/svg"><defs id="defs9"></defs><sodipodi:namedview id="namedview9" pagecolor="#ffffff" bordercolor="#000000" borderopacity="0.25" inkscape:showpageshadow="2" inkscape:pageopacity="0.0" inkscape:pagecheckerboard="0" inkscape:deskcolor="#d1d1d1" inkscape:zoom="3.3078489" inkscape:cx="94.169962" inkscape:cy="14.057474" inkscape:window-width="1680" inkscape:window-height="1050" inkscape:window-x="0" inkscape:window-y="0" inkscape:window-maximized="0" inkscape:current-layer="g7"></sodipodi:namedview>
<style type="text/css" id="style1">
	.st0{fill:none;}
	.st1{fill:#0080A4;}
	.st2{fill:#F6BE07;}
</style>
<g id="g9">
	<rect class="st0" width="212.1" height="44.9" id="rect1"></rect>
	<g id="g8">
		<polygon class="st1" points="174.8,40.9 174.8,6.9 182.5,2 182.5,40.9   " id="polygon1" style="fill:#3088c7;fill-opacity:1"></polygon>
		<path class="st1" d="M197.3,41.6c-6.4,0-11-3.2-11.8-10h7.8c0.8,2.5,2,3.5,4.3,3.5c2,0,3.5-1.2,3.5-2.8c0-1.7-0.3-2.2-5.4-3.7    c-6.4-2-8.9-4.4-8.9-8.6c0-5,4.7-8.9,10.7-8.9c5.4,0,10.3,3.3,10.5,8.7h-7.5c-0.2-1.4-1.6-2.5-3-2.3c-1.5-0.2-2.8,0.9-2.9,2.4    c0,0,0,0.1,0,0.1c0,1.5,0.2,1.6,5.4,3.2c6.7,1.9,8.9,4.2,8.9,8.5C208.7,37.2,203.7,41.6,197.3,41.6z" id="path1" style="fill:#3088c7;fill-opacity:1" data-index="0"></path>
		<polygon class="st1" points="84.1,40.9 84.1,34.6 98.2,18 85.7,18 85.7,11.7 107.4,11.7 107.4,18 93.3,34.6 108.5,34.6     108.5,40.9   " id="polygon2" style="fill:#3088c7;fill-opacity:1"></polygon>
		<polygon class="st1" points="111.9,40.9 111.9,34.6 126.1,18 113.5,18 113.5,11.7 135.3,11.7 135.3,18 121.1,34.6 136.4,34.6     136.4,40.9   " id="polygon3" style="fill:#3088c7;fill-opacity:1"></polygon>
		<polygon class="st1" points="42.1,11.7 37,32.3 31.4,11.7 22.4,11.7 16.8,32 11.6,11.7 3.7,11.7 11.7,40.9 21,40.9 26.7,20.8     32.4,40.9 41.8,40.9 49.8,11.7   " id="polygon4" style="fill:#3088c7;fill-opacity:1"></polygon>
		<path class="st1" d="M163.1,11.7v3.9c-1.9-2.9-6.1-4.6-10.6-4.6c-8.6,0-15.1,6.5-15.1,15.4c-0.2,8.1,6.2,14.9,14.3,15.2    c0.2,0,0.5,0,0.7,0c4,0.1,8-1.5,10.7-4.5v3.8h7.1V11.7H163.1z M154,35.2c-4.9,0-8.9-4-8.9-8.9c0-4.9,4-8.9,8.9-8.9s8.9,4,8.9,8.9    c0,0,0,0,0,0C162.9,31.2,158.9,35.2,154,35.2z" id="path4" style="fill:#3088c7;fill-opacity:1" data-index="1"></path>
		<path class="st2" d="m 50.4,21.7 c -1.5,4.6 -1,9.7 1.2,14 2.2,3.9 5.9,6.6 11.1,7.8 5.9,1.4 12,-1 15.4,-5.9 4.1,-5.6 4.8,-12.9 1.8,-18.5 l -7.6,3.2 c 1.5,2.9 1.3,6.5 -0.7,9.2 -1.5,2.4 -4.4,3.5 -7.2,2.9 -3.5,-0.8 -6.1,-3.8 -6.2,-7.4 0,-2.7 1.2,-5.3 3.1,-7.2 l -5.4,-6.2 c -2.5,2.1 -4.4,5 -5.5,8.1 z" id="path5" style="fill:#ffcb0d;fill-opacity:1" sodipodi:nodetypes="cccccccccccc" data-index="2"></path>
		<g id="g7">
			<path class="st2" d="M 64.6,5.9 C 64.3,5.8 64,5.8 63.7,5.8 c -1.9,0 -3.5,1.3 -3.9,3.2 -0.5,2.2 0.9,4.3 3.1,4.8 2.2,0.5 4.3,-0.9 4.8,-3.1 0.5,-2.2 -0.9,-4.4 -3.1,-4.8 z" id="path6" sodipodi:nodetypes="cscssc" style="fill:#ffcc00;fill-opacity:1" data-index="3"></path>
			<path class="st2" d="M77.8,10.6c-0.6-0.9-1.5-1.5-2.5-1.8c-0.3-0.1-0.6-0.1-0.9-0.1c-1.9,0-3.5,1.3-3.9,3.2l0,0     c-0.5,2.2,0.9,4.3,3.1,4.8s4.3-0.9,4.8-3.1C78.6,12.5,78.4,11.5,77.8,10.6L77.8,10.6z" id="path7" style="fill:#ffcb0d;fill-opacity:1" data-index="4"></path>
		</g>
	</g>
</g>
</svg>